<?xml version="1.0" encoding="utf-8"?>
<!-- Generator: Adobe Illustrator 17.1.0, SVG Export Plug-In . SVG Version: 6.00 Build 0)  -->
<!DOCTYPE svg PUBLIC "-//W3C//DTD SVG 1.1//EN" "http://www.w3.org/Graphics/SVG/1.1/DTD/svg11.dtd">
<svg version="1.1" id="Layer_1" xmlns="http://www.w3.org/2000/svg" xmlns:xlink="http://www.w3.org/1999/xlink" x="0px" y="0px"
	 viewBox="30 34.5 238 276" enable-background="new 30 34.5 238 276" xml:space="preserve">
<path fill="#DEDEDE" d="M242.1,118.5l4.2-4.2c6.1-6.1,7.2-15,2.5-19.7c-4.7-4.7-13.6-3.6-19.7,2.5l-4.3,4.3
	C208.3,87.8,188,78.8,165.8,76v-7.6h6.1c8.6,0,15.7-6.9,15.7-15.3s-7.1-15.3-15.7-15.3h-42.1c-8.6,0-15.7,6.9-15.7,15.3
	s7.1,15.3,15.7,15.3h6.1V76C77.8,83.4,33,132.9,33,192.8c0,65,52.7,117.7,117.8,117.7c65,0,117.8-52.7,117.8-117.7
	C268.5,164.6,258.6,138.7,242.1,118.5z M150.8,279.9c-48.1,0-87.1-39-87.1-87.1c0-48.1,39-87.1,87.1-87.1c48.1,0,87.1,39,87.1,87.1
	C237.8,240.9,198.8,279.9,150.8,279.9z"/>
<path fill="#EA1B56" d="M150.9,90.3c-56.7,0-102.7,46-102.7,102.7c0,56.7,46,102.7,102.7,102.7s102.7-46,102.7-102.7
	C253.6,136.3,207.6,90.3,150.9,90.3z M150.9,282.8c-49.4,0-89.4-40-89.4-89.4c0-49.4,40-89.4,89.4-89.4c49.4,0,89.4,40,89.4,89.4
	C240.3,242.8,200.3,282.8,150.9,282.8z"/>
</svg>
